<svg width="108" height="120" viewBox="0 0 108 120" fill="none" xmlns="http://www.w3.org/2000/svg">
<g opacity="0.58">
<path d="M94.323 0H13.677C6.13566 0 0 6.09833 0 13.5938V100.312C0 104.189 3.1733 107.343 7.0743 107.343H38.0437C39.3462 107.343 40.4018 106.294 40.4018 104.999C40.4018 103.705 39.3462 102.655 38.0437 102.655H7.0743C5.77366 102.655 4.7162 101.604 4.7162 100.312V13.5938C4.7162 8.68286 8.73602 4.6875 13.677 4.6875H84.0036C81.9154 7.0752 80.6461 10.1889 80.6461 13.5938V89.1248C80.6461 91.2872 78.8766 93.046 76.7008 93.046C75.0004 93.046 73.4962 91.9684 72.9574 90.3653L69.4036 79.7672C68.4005 76.7752 65.5938 74.7656 62.4215 74.7656C58.3629 74.7656 55.0616 78.0469 55.0616 82.0798V83.9053H42.8391C41.5366 83.9053 40.481 84.9554 40.481 86.2491C40.481 87.5436 41.5366 88.5928 42.8391 88.5928H55.0616V100.253C55.0616 103.714 55.7405 107.088 57.0798 110.282L60.5488 118.557C60.9265 119.457 61.8025 120 62.7263 120C63.0285 120 63.3361 119.942 63.6318 119.82C64.8348 119.322 65.4032 117.949 64.9021 116.754L61.4331 108.479C60.3351 105.86 59.7778 103.092 59.7778 100.254V82.0807C59.7778 80.6314 60.9633 79.4531 62.4215 79.4531C63.5609 79.4531 64.5695 80.1746 64.9297 81.2494L68.4834 91.8475C69.6643 95.3677 72.9666 97.7335 76.7008 97.7335C81.4769 97.7335 85.3623 93.8718 85.3623 89.1248V48.9413L88.5135 52.067C94.136 57.6443 97.232 65.0647 97.232 72.9593V97.8735C97.232 104.327 95.7609 110.82 92.9791 116.651C92.4209 117.82 92.9229 119.218 94.0992 119.773C95.2755 120.328 96.6821 119.83 97.2403 118.66C100.32 112.205 101.948 105.017 101.948 97.8735V72.9593C101.948 63.8104 98.3604 55.2127 91.8452 48.7491L85.3623 42.3175V40.0781H100.926C104.827 40.0781 108 36.9241 108 33.0469V13.5938C108 6.09833 101.865 0 94.323 0ZM103.284 33.0469C103.284 34.3387 102.226 35.3906 100.926 35.3906H85.3623V13.5938C85.3623 8.68286 89.3821 4.6875 94.323 4.6875C99.264 4.6875 103.284 8.68286 103.284 13.5938V33.0469Z" fill="#BEBEBE"/>
<path d="M48.341 102.655C47.7202 102.655 47.1122 102.906 46.6738 103.342C46.2353 103.779 45.9829 104.383 45.9829 104.999C45.9829 105.616 46.2353 106.22 46.6738 106.656C47.1122 107.092 47.7202 107.343 48.341 107.343C48.9609 107.343 49.5689 107.092 50.0083 106.656C50.4467 106.22 50.6991 105.616 50.6991 104.999C50.6991 104.383 50.4467 103.779 50.0083 103.342C49.5689 102.906 48.9609 102.655 48.341 102.655Z" fill="#BEBEBE"/>
<path d="M32.4635 17.3438C32.4635 14.7592 30.3476 12.6562 27.7473 12.6562H17.3716C14.7704 12.6562 12.6554 14.7592 12.6554 17.3438V27.6562C12.6554 30.2408 14.7704 32.3438 17.3716 32.3438H27.7473C30.3476 32.3438 32.4635 30.2408 32.4635 27.6562V17.3438ZM27.7473 27.6562H17.3716V17.3438H27.7473L27.75 27.6562C27.75 27.6562 27.7491 27.6562 27.7473 27.6562Z" fill="#BEBEBE"/>
<path d="M32.4635 45.4688C32.4635 42.8842 30.3476 40.7812 27.7473 40.7812H17.3716C14.7704 40.7812 12.6554 42.8842 12.6554 45.4688V55.7812C12.6554 58.3658 14.7704 60.4688 17.3716 60.4688H27.7473C30.3476 60.4688 32.4635 58.3658 32.4635 55.7812V45.4688ZM27.7473 55.7812H17.3716V45.4688H27.7473L27.75 55.7812C27.75 55.7812 27.7491 55.7812 27.7473 55.7812Z" fill="#BEBEBE"/>
<path d="M27.7473 68.9062H17.3716C14.7704 68.9062 12.6554 71.0083 12.6554 73.5938V83.9053C12.6554 86.4908 14.7704 88.5928 17.3716 88.5928H27.7473C30.3476 88.5928 32.4635 86.4908 32.4635 83.9053V73.5938C32.4635 71.0083 30.3476 68.9062 27.7473 68.9062ZM27.7473 83.9053H17.3716V73.5938H27.7473L27.75 83.9053C27.75 83.9053 27.7491 83.9053 27.7473 83.9053Z" fill="#BEBEBE"/>
<path d="M69.878 32.3438C71.1805 32.3438 72.2361 31.2946 72.2361 30C72.2361 28.7054 71.1805 27.6562 69.878 27.6562H53.6219C52.3194 27.6562 51.2638 28.7054 51.2638 30C51.2638 31.2946 52.3194 32.3438 53.6219 32.3438H69.878Z" fill="#BEBEBE"/>
<path d="M42.8391 32.3438C43.4599 32.3438 44.0679 32.0929 44.5064 31.6571C44.9448 31.2213 45.1972 30.6161 45.1972 30C45.1972 29.3839 44.9448 28.7787 44.5064 28.3429C44.0679 27.9071 43.4599 27.6562 42.8391 27.6562C42.2164 27.6562 41.6103 27.9071 41.1719 28.3429C40.7316 28.7787 40.481 29.3839 40.481 30C40.481 30.6161 40.7316 31.2213 41.1719 31.6571C41.6103 32.0929 42.2164 32.3438 42.8391 32.3438Z" fill="#BEBEBE"/>
<path d="M42.8382 60.4688H69.878C71.1805 60.4688 72.2361 59.4196 72.2361 58.125C72.2361 56.8304 71.1805 55.7812 69.878 55.7812H42.8382C41.5366 55.7812 40.4801 56.8304 40.4801 58.125C40.4801 59.4196 41.5366 60.4688 42.8382 60.4688Z" fill="#BEBEBE"/>
</g>
</svg>
