<svg width="74" height="60" viewBox="0 0 74 60" fill="none" xmlns="http://www.w3.org/2000/svg">
<path d="M73.2926 13.6312L49.8921 4.79313C49.3247 4.57892 48.6895 4.86081 48.4733 5.42235C48.2571 5.98444 48.5416 6.61366 49.109 6.82787L69.8159 14.6486L55.4814 20.0632L37.4534 11.9768C36.9001 11.7285 36.2491 11.9718 35.999 12.5193C35.7483 13.0674 35.9939 13.7123 36.5466 13.9606L52.5879 21.156L37 27.0432L4.18407 14.6486L37 2.25391L45.087 5.30881C45.6532 5.52246 46.289 5.24113 46.5058 4.67904C46.722 4.1175 46.4374 3.48829 45.87 3.27408L37.3918 0.0715207C37.1395 -0.0235603 36.8605 -0.0241197 36.6082 0.0715207L0.707413 13.6312C0.281723 13.7923 0 14.1972 0 14.6486V19.6207C0 20.0721 0.281723 20.477 0.707413 20.6381L11.9182 24.872V28.6451C11.9182 29.2463 12.4099 29.734 13.0168 29.734C13.6243 29.734 14.1161 29.2463 14.1161 28.6451V25.7026L36.6082 34.1978C36.7346 34.2453 36.8673 34.2694 37 34.2694C37.1327 34.2694 37.2654 34.2453 37.3918 34.1978L54.346 27.7944V45.0253C49.0232 47.7933 43.0545 49.2765 37 49.2765C28.7369 49.2765 20.6318 46.5169 14.1161 41.495V33.0003C14.1161 32.3991 13.6243 31.9114 13.0168 31.9114C12.4099 31.9114 11.9182 32.3991 11.9182 33.0003V42.0224C11.9182 42.353 12.0695 42.6656 12.3298 42.872C19.3028 48.4063 28.0645 51.4539 37 51.4539C43.0263 51.4539 48.9724 50.0657 54.346 47.4655V51.8722C52.5749 52.3516 51.2691 53.9584 51.2691 55.8629C51.2691 58.1437 53.1423 60 55.4447 60C57.7476 60 59.6208 58.1437 59.6208 55.8629C59.6208 53.9584 58.315 52.3516 56.5439 51.8722V46.3156C58.3353 45.3061 60.0516 44.1573 61.6708 42.872C61.9311 42.6656 62.0829 42.353 62.0829 42.0224V24.8715L73.2926 20.6376C73.7183 20.477 74 20.0721 74 19.6202V14.6486C74 14.1972 73.7183 13.7923 73.2926 13.6312ZM57.4229 55.8629C57.4229 56.9429 56.5354 57.8221 55.4447 57.8221C54.3545 57.8221 53.467 56.9429 53.467 55.8629C53.467 54.7823 54.3545 53.9031 55.4447 53.9031C56.5354 53.9031 57.4229 54.7823 57.4229 55.8629ZM2.19789 16.2292L35.9008 28.9588V31.5998L2.19789 18.8702V16.2292ZM38.0992 31.5998V28.9588L54.346 22.8222V25.4638L38.0992 31.5998ZM59.8845 41.4944C58.8124 42.3211 57.6962 43.0851 56.5439 43.7864V26.9638L59.8845 25.702V41.4944ZM56.5439 24.6332V21.9922L71.8021 16.2292V18.8702L56.5439 24.6332Z" fill="#747474"/>
</svg>
