<svg width="58" height="70" viewBox="0 0 58 70" fill="none" xmlns="http://www.w3.org/2000/svg">
<path d="M50.6109 27.9779H24.747C25.943 26.5918 26.6696 24.7838 26.6696 22.8067C26.6696 18.4559 23.159 14.9164 18.8436 14.9164C14.5283 14.9164 11.0176 18.4559 11.0176 22.8067C11.0176 24.7838 11.7443 26.5918 12.9402 27.9779H6.76616C3.0353 27.9779 0 31.0381 0 34.7997V42.8492C0 43.6027 0.605842 44.2136 1.35323 44.2136C2.10062 44.2136 2.70646 43.6027 2.70646 42.8492V34.7997C2.70646 32.5427 4.52764 30.7066 6.76616 30.7066H44.6567C46.8952 30.7066 48.7164 32.5427 48.7164 34.7997V42.1672H34.6427C30.9119 42.1672 27.8766 45.2274 27.8766 48.9889C27.8766 52.7505 30.9119 55.8107 34.6427 55.8107H48.7164V63.1782C48.7164 65.4351 46.8952 67.2713 44.6567 67.2713H6.76616C4.52764 67.2713 2.70646 65.4351 2.70646 63.1782V55.1179C2.70646 54.3644 2.10062 53.7535 1.35323 53.7535C0.605842 53.7535 0 54.3644 0 55.1179V63.1782C0 66.9398 3.0353 70 6.76616 70H50.6109C54.3418 70 57.377 66.9398 57.377 63.1782V34.7997C57.377 31.0381 54.3418 27.9779 50.6109 27.9779ZM18.8436 17.6452C21.6666 17.6452 23.9632 19.9606 23.9632 22.8068C23.9632 25.653 21.6666 27.9685 18.8436 27.9685C16.0208 27.9685 13.7241 25.653 13.7241 22.8068C13.7241 19.9606 16.0206 17.6452 18.8436 17.6452ZM50.0659 30.7066H50.6109C52.8494 30.7066 54.6706 32.5427 54.6706 34.7997V42.1672H51.4228V34.7997C51.4228 33.2652 50.9174 31.8476 50.0659 30.7066ZM30.5831 48.9889C30.5831 46.732 32.4042 44.8959 34.6427 44.8959H54.6706V53.082H34.6427C32.4042 53.082 30.5831 51.2459 30.5831 48.9889ZM50.6109 67.2713H50.0659C50.9174 66.1303 51.4228 64.7129 51.4228 63.1782V55.8107H54.6706V63.1782C54.6706 65.4351 52.8494 67.2713 50.6109 67.2713Z" fill="#747474"/>
<path d="M34.2963 47.6245C33.9391 47.6245 33.5899 47.7704 33.3382 48.0242C33.0865 48.278 32.9431 48.63 32.9431 48.9888C32.9431 49.3476 33.0865 49.6996 33.3382 49.9534C33.5913 50.2072 33.9391 50.3532 34.2963 50.3532C34.6522 50.3532 35 50.2072 35.2531 49.9534C35.5048 49.6996 35.6496 49.3476 35.6496 48.9888C35.6496 48.63 35.5048 48.278 35.2531 48.0242C35.0014 47.7703 34.6522 47.6245 34.2963 47.6245Z" fill="#747474"/>
<path d="M38.5334 18.7817C42.8488 18.7817 46.3594 15.2422 46.3594 10.8914C46.3594 6.54072 42.8488 3.00104 38.5334 3.00104C34.2181 3.00104 30.7074 6.54058 30.7074 10.8914C30.7074 15.2422 34.2181 18.7817 38.5334 18.7817ZM38.5334 5.72988C41.3563 5.72988 43.653 8.04533 43.653 10.8915C43.653 13.7377 41.3564 16.0531 38.5334 16.0531C35.7104 16.0531 33.4139 13.7377 33.4139 10.8915C33.4139 8.04533 35.7104 5.72988 38.5334 5.72988Z" fill="#747474"/>
<path d="M25.3164 13.4499C26.0638 13.4499 26.6696 12.8391 26.6696 12.0856V1.36436C26.6696 0.610822 26.0638 0 25.3164 0C24.569 0 23.9632 0.610822 23.9632 1.36436V12.0856C23.9632 12.8391 24.569 13.4499 25.3164 13.4499Z" fill="#747474"/>
<path d="M18.8209 8.73187C19.5683 8.73187 20.1741 8.12105 20.1741 7.36752V1.36436C20.1741 0.610822 19.5683 0 18.8209 0C18.0735 0 17.4677 0.610822 17.4677 1.36436V7.36752C17.4677 8.12105 18.0735 8.73187 18.8209 8.73187Z" fill="#747474"/>
<path d="M1.35323 50.3532C1.70913 50.3532 2.05827 50.2072 2.30997 49.9534C2.56167 49.6996 2.70646 49.3476 2.70646 48.9888C2.70646 48.63 2.56167 48.278 2.30997 48.0242C2.05827 47.7704 1.71049 47.6245 1.35323 47.6245C0.997332 47.6245 0.648198 47.7704 0.396497 48.0242C0.144796 48.278 0 48.63 0 48.9888C0 49.3476 0.144796 49.6996 0.396497 49.9534C0.648198 50.2072 0.997197 50.3532 1.35323 50.3532Z" fill="#747474"/>
</svg>
