<svg width="63" height="63" viewBox="0 0 63 63" fill="none" xmlns="http://www.w3.org/2000/svg">
<path d="M61.7695 60.5391H2.46094V53.1562H4.22457C4.90403 53.1562 5.45504 52.6052 5.45504 51.9258C5.45504 51.2463 4.90403 50.6953 4.22457 50.6953H2.46094V43.3125H4.22457C4.90403 43.3125 5.45504 42.7615 5.45504 42.082C5.45504 41.4026 4.90403 40.8516 4.22457 40.8516H2.46094V33.4688H4.22457C4.90403 33.4688 5.45504 32.9177 5.45504 32.2383C5.45504 31.5588 4.90403 31.0078 4.22457 31.0078H2.46094V23.625H4.22457C4.90403 23.625 5.45504 23.074 5.45504 22.3945C5.45504 21.7151 4.90403 21.1641 4.22457 21.1641H2.46094V13.7812H4.22457C4.90403 13.7812 5.45504 13.2302 5.45504 12.5508C5.45504 11.8713 4.90403 11.3203 4.22457 11.3203H2.46094V1.23047C2.46094 0.551004 1.90993 0 1.23047 0C0.551004 0 0 0.551004 0 1.23047V61.7695C0 62.449 0.551004 63 1.23047 63H61.7695C62.449 63 63 62.449 63 61.7695C63 61.0901 62.449 60.5391 61.7695 60.5391Z" fill="#747474"/>
<path d="M15.3297 53.1562C18.7221 53.1562 21.482 50.3963 21.482 47.0039C21.482 45.7518 21.1051 44.5865 20.4601 43.6136L25.7147 38.359C26.6875 39.004 27.8529 39.3809 29.105 39.3809C30.5698 39.3809 31.9159 38.8656 32.9735 38.0078L36.9227 41.2597C36.4649 42.1197 36.2045 43.1 36.2045 44.1404C36.2045 47.5328 38.9644 50.2927 42.3568 50.2927C45.7492 50.2927 48.5091 47.5328 48.5091 44.1404C48.5091 42.8882 48.1322 41.723 47.4872 40.75L53.4573 34.7799C54.4302 35.4249 55.5955 35.8018 56.8477 35.8018C60.2401 35.8018 63 33.0419 63 29.6495C63 28.8721 62.8565 28.1138 62.5738 27.3956C62.3247 26.7634 61.6104 26.4524 60.9778 26.7017C60.3455 26.9507 60.0349 27.6652 60.2839 28.2976C60.4532 28.7271 60.5389 29.182 60.5389 29.6495C60.5389 31.6849 58.883 33.3409 56.8475 33.3409C54.8121 33.3409 53.1561 31.6849 53.1561 29.6495C53.1561 29.1818 53.242 28.7266 53.4116 28.2965C53.6606 27.6643 53.3502 26.9497 52.7178 26.7006C52.0859 26.4513 51.3713 26.7621 51.1219 27.3943C50.8387 28.113 50.6951 28.8717 50.6951 29.6495C50.6951 30.9016 51.072 32.0669 51.717 33.0398L45.7469 39.0099C44.7741 38.3649 43.6087 37.988 42.3565 37.988C40.8918 37.988 39.5457 38.5033 38.4881 39.3611L34.5389 36.1091C34.9966 35.2491 35.2571 34.2688 35.2571 33.2284C35.2571 29.836 32.4972 27.0761 29.1048 27.0761C25.7124 27.0761 22.9524 29.836 22.9524 33.2284C22.9524 34.4806 23.3293 35.6458 23.9743 36.6188L18.7197 41.8733C17.7469 41.2283 16.5816 40.8514 15.3294 40.8514C11.937 40.8514 9.17708 43.6114 9.17708 47.0038C9.17708 50.3962 11.9373 53.1562 15.3297 53.1562ZM42.3568 40.4491C44.3922 40.4491 46.0482 42.105 46.0482 44.1405C46.0482 46.1759 44.3922 47.8319 42.3568 47.8319C40.3214 47.8319 38.6654 46.1759 38.6654 44.1405C38.6654 42.105 40.3214 40.4491 42.3568 40.4491ZM29.105 29.5372C31.1405 29.5372 32.7964 31.1931 32.7964 33.2286C32.7964 35.264 31.1405 36.92 29.105 36.92C27.0696 36.92 25.4136 35.264 25.4136 33.2286C25.4136 31.1931 27.0696 29.5372 29.105 29.5372ZM15.3297 43.3125C17.3651 43.3125 19.0211 44.9685 19.0211 47.0039C19.0211 49.0393 17.3651 50.6953 15.3297 50.6953C13.2942 50.6953 11.6383 49.0393 11.6383 47.0039C11.6383 44.9685 13.2942 43.3125 15.3297 43.3125Z" fill="#747474"/>
<path d="M56.8477 25.9641C57.1713 25.9641 57.4887 25.8325 57.7175 25.6036C57.9463 25.3747 58.0781 25.0573 58.0781 24.7337C58.0781 24.41 57.9465 24.0926 57.7175 23.8637C57.4887 23.635 57.1713 23.5032 56.8477 23.5032C56.5227 23.5032 56.2066 23.6348 55.9777 23.8637C55.7488 24.0926 55.6172 24.4089 55.6172 24.7337C55.6172 25.0573 55.7487 25.3747 55.9777 25.6036C56.2066 25.8323 56.524 25.9641 56.8477 25.9641Z" fill="#747474"/>
<path d="M17.165 25.964C17.8445 25.964 18.3955 25.4131 18.3955 24.7335V23.1673C21.2165 22.5809 22.8651 20.2406 23.2328 18.0529C23.709 15.2203 22.2268 12.7571 19.4568 11.778C19.1081 11.6548 18.7516 11.5259 18.3956 11.392V5.17252C19.354 5.41259 19.9137 5.89468 19.9524 5.92889C20.1691 6.11949 20.45 6.23269 20.7613 6.23269C21.4409 6.23269 21.9918 5.68181 21.9918 5.00222C21.9918 4.65523 21.8124 4.30996 21.5813 4.08639C21.2796 3.83291 20.1102 2.93824 18.3958 2.66372V1.35241C18.3958 0.67282 17.8447 0.121939 17.1653 0.121939C16.4858 0.121939 15.9348 0.67282 15.9348 1.35241V2.71675C15.694 2.76437 15.4477 2.82442 15.1951 2.90046C13.3732 3.44925 12.012 5.00912 11.6422 6.9711C11.3054 8.75823 11.8766 10.4805 13.133 11.466C13.8332 12.0152 14.711 12.5165 15.9348 13.051V20.8288C14.8316 20.7708 14.1234 20.5423 12.9171 19.753C12.3482 19.3809 11.5858 19.5405 11.2138 20.1092C10.8418 20.6779 11.0011 21.4404 11.5699 21.8125C13.268 22.9233 14.4093 23.2244 15.9349 23.2907V24.7335C15.9346 25.4131 16.4855 25.964 17.165 25.964ZM18.3955 14.0121C18.476 14.0409 18.554 14.0692 18.6364 14.0983C21.0589 14.9545 20.9095 17.0296 20.8059 17.645C20.6063 18.8321 19.7873 20.0928 18.3955 20.6069V14.0121ZM14.6516 9.52961C14.1209 9.11347 13.8943 8.30776 14.0603 7.42686C14.2162 6.5995 14.7826 5.59494 15.9047 5.25693C15.9148 5.25386 15.9245 5.25164 15.9344 5.24869V10.3288C15.4468 10.0756 15.0083 9.8093 14.6516 9.52961Z" fill="#747474"/>
</svg>
