<svg width="90" height="90" viewBox="0 0 90 90" fill="none" xmlns="http://www.w3.org/2000/svg">
<path d="M30.4839 49.3548C26.4818 49.3548 23.2258 46.0989 23.2258 42.0968H20.3226C20.3226 47.6986 24.8806 52.2581 30.4839 52.2581C36.0871 52.2581 40.6452 47.6986 40.6452 42.0968H37.7419C37.7419 46.0989 34.486 49.3548 30.4839 49.3548Z" fill="#747474"/>
<path d="M33.3871 29.0323H42.0968V31.9355H33.3871V29.0323Z" fill="#747474"/>
<path d="M29.0323 42.0968H31.9355V30.4839C31.9355 29.6811 31.2852 29.0323 30.4839 29.0323H18.871V31.9355H29.0323V42.0968Z" fill="#747474"/>
<path d="M26.129 35.5645C26.129 34.364 25.1521 33.3871 23.9516 33.3871C22.7511 33.3871 21.7742 34.364 21.7742 35.5645C21.7742 36.765 22.7511 37.7419 23.9516 37.7419C25.1521 37.7419 26.129 36.765 26.129 35.5645Z" fill="#747474"/>
<path d="M39.1936 35.5645C39.1936 34.364 38.2166 33.3871 37.0161 33.3871C35.8156 33.3871 34.8387 34.364 34.8387 35.5645C34.8387 36.765 35.8156 37.7419 37.0161 37.7419C38.2166 37.7419 39.1936 36.765 39.1936 35.5645Z" fill="#747474"/>
<path d="M87.0968 81.5574V72.5807C87.0968 66.1892 82.9394 60.7602 77.1895 58.8281L79.7821 49.754C79.9244 49.2561 79.7908 48.719 79.4294 48.346C79.0679 47.9729 78.5395 47.8176 78.0344 47.9482L72.5807 49.3098L67.1269 47.9482C66.6203 47.819 66.0919 47.9744 65.7319 48.346C65.3705 48.719 65.2369 49.2561 65.3792 49.754L67.9718 58.8281C65.0569 59.8079 62.5573 61.6877 60.7965 64.1381C60.136 60.4394 57.494 57.3765 53.7953 56.2369L43.7153 53.1363C47.7363 49.6742 50.3797 44.6748 50.7397 39.0542C54.0813 38.4039 56.6129 35.4629 56.6129 31.9355C56.6129 28.4313 54.1147 25.499 50.8065 24.824V1.45161C50.8065 0.648871 50.1561 0 49.3548 0H36.3934C29.7682 0 23.5176 2.44016 18.6677 6.89516L12.3605 3.11081C11.9105 2.84226 11.3516 2.83355 10.8973 3.09194C10.4429 3.35032 10.1613 3.83226 10.1613 4.35484V24.824C6.85306 25.499 4.35484 28.4313 4.35484 31.9355C4.35484 35.4629 6.88645 38.4039 10.2281 39.0542C10.5895 44.6734 13.2315 49.6742 17.2524 53.1363L7.17242 56.2355C2.8829 57.5565 0 61.4613 0 65.9497V88.5484C0 89.3511 0.650323 90 1.45161 90H52.2581V87.0968H30.4839H2.90323V65.9497C2.90323 62.7431 4.96161 59.9545 8.02597 59.0124L17.5863 56.0715L20.3574 68.5408C20.4721 69.0576 20.8597 69.4727 21.3677 69.6194C21.5013 69.6585 21.6392 69.6774 21.7742 69.6774C22.1531 69.6774 22.5247 69.5279 22.8005 69.2521L24.8139 67.2387L27.3135 69.1142L24.721 79.4874C24.615 79.9113 24.7065 80.3613 24.9677 80.7097L29.3226 86.5161C29.5955 86.8819 30.0266 87.0968 30.4839 87.0968C30.9411 87.0968 31.3708 86.8819 31.6452 86.5161L36 80.7097C36.2627 80.3613 36.3527 79.9113 36.2468 79.4874L33.6542 69.1142L36.1539 67.2387L38.1673 69.2521C38.4431 69.5279 38.8147 69.6774 39.1936 69.6774C39.3285 69.6774 39.4665 69.6585 39.6 69.6194C40.1081 69.4713 40.4956 69.0576 40.6103 68.5408L43.3815 56.0715L52.9403 59.0124C56.0047 59.9545 58.0645 62.7431 58.0645 65.9497V81.5574C56.3792 82.1584 55.1613 83.7552 55.1613 85.6452C55.1613 88.0461 57.1152 90 59.5161 90H85.6452C88.0461 90 90 88.0461 90 85.6452C90 83.7552 88.7821 82.1584 87.0968 81.5574ZM53.7097 31.9355C53.7097 33.8255 52.4918 35.4223 50.8065 36.0232V27.8492C52.4918 28.4487 53.7097 30.0455 53.7097 31.9355ZM18.1234 9.95371C18.6968 10.2977 19.4255 10.2077 19.8973 9.73597C24.3044 5.33032 30.1631 2.90323 36.3934 2.90323H47.9032V30.2168C46.2179 29.6158 45 28.019 45 26.129V23.3274C45 20.07 42.3494 17.4194 39.0919 17.4194C37.9219 17.4194 36.7897 17.7619 35.8142 18.4123L34.9984 18.9566C32.3173 20.745 28.6519 20.745 25.9708 18.9566L25.1535 18.4123C24.1795 17.7619 23.0458 17.4194 21.8758 17.4194C18.6184 17.4194 15.9677 20.07 15.9677 23.3274V26.129C15.9677 28.019 14.7498 29.6158 13.0645 30.2168V6.91984L18.1234 9.95371ZM7.25806 31.9355C7.25806 30.0455 8.47597 28.4487 10.1613 27.8477V36.0218C8.47597 35.4223 7.25806 33.8255 7.25806 31.9355ZM13.0645 37.7419V33.2405C16.3727 32.5655 18.871 29.6347 18.871 26.129V23.3274C18.871 21.6697 20.2195 20.3226 21.8758 20.3226C22.471 20.3226 23.0473 20.4968 23.5423 20.8277L24.3581 21.3721C27.9958 23.7992 32.969 23.7992 36.6068 21.3721L37.4226 20.8277C37.9205 20.4968 38.4968 20.3226 39.0919 20.3226C40.7497 20.3226 42.0968 21.6711 42.0968 23.3274V26.129C42.0968 29.6332 44.595 32.5655 47.9032 33.2405V37.7419C47.9032 47.3473 40.0892 55.1613 30.4839 55.1613C20.8785 55.1613 13.0645 47.3473 13.0645 37.7419ZM22.6176 65.3298L20.4024 55.3631C20.9874 55.6984 21.5869 56.0061 22.2068 56.2834L25.7531 62.1929L22.6176 65.3298ZM30.4839 83.2253L27.704 79.5208L29.8437 70.9592C30.0484 71.0608 30.2632 71.129 30.4839 71.129C30.7045 71.129 30.9194 71.0608 31.1226 70.9592L33.2623 79.5208L30.4839 83.2253ZM30.4839 67.8629L26.8868 65.1658L28.6069 63.4456C29.0787 62.9753 29.1687 62.2437 28.8247 61.6718L26.4135 57.6537C27.7302 57.9223 29.0903 58.0645 30.4839 58.0645C31.8774 58.0645 33.2376 57.9223 34.5527 57.6537L32.1416 61.6718C31.799 62.2437 31.889 62.9739 32.3594 63.4456L34.0795 65.1658L30.4839 67.8629ZM38.3502 65.3298L35.2147 62.1944L38.761 56.2848C39.3794 56.0076 39.9803 55.6998 40.5653 55.3645L38.3502 65.3298ZM68.8602 51.3726L72.2279 52.2145C72.4587 52.274 72.7011 52.274 72.9319 52.2145L76.2997 51.3726L74.3531 58.185C73.7724 58.1124 73.1831 58.0645 72.5807 58.0645C71.9782 58.0645 71.3889 58.1124 70.8068 58.185L68.8602 51.3726ZM85.6452 87.0968H59.5161C58.7163 87.0968 58.0645 86.4465 58.0645 85.6452C58.0645 84.8439 58.7163 84.1936 59.5161 84.1936H65.3226V81.2903H60.9677V72.5807C60.9677 66.1776 66.1776 60.9677 72.5807 60.9677C78.9837 60.9677 84.1936 66.1776 84.1936 72.5807V81.2903H79.8387V84.1936H85.6452C86.445 84.1936 87.0968 84.8439 87.0968 85.6452C87.0968 86.4465 86.445 87.0968 85.6452 87.0968Z" fill="#747474"/>
<path d="M74.0323 65.3226H71.129V68.2258H69.6774C69.091 68.2258 68.5611 68.5786 68.3361 69.1215C68.1111 69.6644 68.236 70.2886 68.6511 70.7037L71.9797 74.0323H68.2258V76.9355H71.129V79.8387H74.0323V76.9355H75.4839C76.0703 76.9355 76.6002 76.5827 76.8252 76.0398C77.0502 75.4969 76.9253 74.8727 76.5102 74.4576L73.1816 71.129H76.9355V68.2258H74.0323V65.3226Z" fill="#747474"/>
</svg>
