<svg width="98" height="98" viewBox="0 0 98 98" fill="none" xmlns="http://www.w3.org/2000/svg">
<path d="M33.883 65.5518H37.171V62.1916C38.169 61.9885 39.0558 61.4233 39.6594 60.6055C40.2631 59.7878 40.5406 58.7757 40.4383 57.7655C40.3359 56.7554 39.8609 55.8191 39.1054 55.1382C38.3498 54.4573 37.3676 54.0802 36.349 54.0802H34.705C34.487 54.0802 34.2779 53.9939 34.1237 53.8402C33.9696 53.6866 33.883 53.4781 33.883 53.2608C33.883 53.0435 33.9696 52.8351 34.1237 52.6814C34.2779 52.5277 34.487 52.4414 34.705 52.4414H40.4591V49.1638H37.171V45.8862H33.883V49.2464C32.885 49.4495 31.9982 50.0147 31.3946 50.8325C30.7909 51.6503 30.5133 52.6623 30.6157 53.6725C30.7181 54.6827 31.1931 55.6189 31.9486 56.2999C32.7042 56.9808 33.6864 57.3578 34.705 57.3578H36.349C36.567 57.3578 36.7761 57.4441 36.9303 57.5978C37.0844 57.7515 37.171 57.9599 37.171 58.1772C37.171 58.3945 37.0844 58.6029 36.9303 58.7566C36.7761 58.9103 36.567 58.9966 36.349 58.9966H30.5949V62.2742H33.883V65.5518Z" fill="#747474"/>
<path d="M94.712 40.9699C94.7119 40.5352 94.5387 40.1184 94.2304 39.8111C93.9221 39.5037 93.5039 39.3311 93.0679 39.3311H83.2038C82.7677 39.3311 82.3496 39.5037 82.0413 39.8111C81.7329 40.1184 81.5597 40.5352 81.5597 40.9699V47.525H73.3396C72.9036 47.525 72.4854 47.6977 72.1771 48.005C71.8688 48.3124 71.6956 48.7292 71.6956 49.1638V54.0802H63.4754C63.0394 54.0802 62.6213 54.2529 62.3129 54.5602C62.0046 54.8675 61.8314 55.2844 61.8314 55.719V71.1858L55.2041 63.2584C56.4585 60.5437 57.0315 57.5655 56.8737 54.5807C56.7159 51.596 55.832 48.6943 54.2983 46.1261L60.7641 40.9699H71.6956V37.6923H60.1874C59.8141 37.6923 59.4519 37.8189 59.1604 38.0514L52.3686 43.4675C52.3211 43.4128 52.2762 43.3563 52.2279 43.3022L44.0069 34.083L45.4918 30.3825C45.7344 29.7781 45.7985 29.1171 45.6767 28.4775C45.5548 27.8379 45.252 27.2464 44.804 26.7728C44.3559 26.2991 43.7814 25.963 43.148 25.8041C42.5147 25.6452 41.849 25.6702 41.2294 25.876C41.201 25.8856 41.1703 25.8855 41.1419 25.8758C41.1136 25.8662 41.0893 25.8475 41.0727 25.8226L39.4508 23.3976C39.0202 22.7537 38.4367 22.2257 37.7522 21.8606C37.0677 21.4954 36.3033 21.3043 35.5269 21.3043C34.7506 21.3043 33.9862 21.4954 33.3017 21.8606C32.6172 22.2257 32.0337 22.7537 31.6031 23.3976L29.9814 25.8226C29.9648 25.8475 29.9404 25.8662 29.9121 25.8758C29.8837 25.8855 29.853 25.8855 29.8246 25.876C29.205 25.6702 28.5393 25.6452 27.906 25.8041C27.2727 25.963 26.6981 26.299 26.2501 26.7727C25.8021 27.2463 25.4993 27.8378 25.3774 28.4774C25.2555 29.1169 25.3196 29.7779 25.5622 30.3823L27.0471 34.083L18.8261 43.302C16.5604 45.8415 15.0435 48.9563 14.4433 52.3018C13.8431 55.6472 14.1829 59.093 15.4252 62.2579L0 74.0856L2.00486 76.6835L5.37725 74.0975L18.4291 91.4447L13.1683 95.3778L15.141 98L21.5595 93.2014L32.8866 88.3625C33.2439 88.2098 33.5354 87.9357 33.7094 87.5891L36.6797 81.6671L50.4243 77.5571C51.2623 77.3067 52.0082 76.8168 52.5696 76.1479C53.131 75.4791 53.4831 74.6608 53.5824 73.7943C53.6817 72.9279 53.5238 72.0515 53.1282 71.2737C52.7326 70.4959 52.1168 69.8509 51.357 69.4186L53.4534 66.284L60.5684 74.7948C60.7227 74.9794 60.9158 75.1279 61.1341 75.2298C61.3523 75.3317 61.5904 75.3845 61.8314 75.3845H98V72.107H94.712V40.9699ZM28.6424 29.0214C28.6584 28.9999 28.6813 28.9846 28.7073 28.9781C28.7333 28.9716 28.7608 28.9742 28.785 28.9856C29.4978 29.2211 30.2684 29.2171 30.9787 28.9741C31.689 28.7312 32.2997 28.2628 32.7173 27.6407L34.3389 25.2157C34.4693 25.0207 34.646 24.8609 34.8532 24.7503C35.0605 24.6398 35.2919 24.5819 35.5269 24.5819C35.762 24.5819 35.9934 24.6398 36.2007 24.7503C36.4079 24.8609 36.5846 25.0207 36.715 25.2157L38.3368 27.6407C38.7545 28.2627 39.3652 28.731 40.0754 28.9739C40.7856 29.2168 41.5562 29.2209 42.269 28.9856C42.2937 28.9774 42.3202 28.9764 42.3455 28.9827C42.3707 28.989 42.3936 29.0024 42.4115 29.0213C42.4293 29.0402 42.4414 29.0638 42.4463 29.0893C42.4511 29.1148 42.4486 29.1411 42.4389 29.1652L40.9901 32.7759H30.0639L28.615 29.165C28.6023 29.1416 28.5981 29.1145 28.6031 29.0883C28.6081 29.0622 28.622 29.0385 28.6424 29.0214ZM17.4427 55.5498C17.4413 51.8372 18.8082 48.2534 21.2836 45.4795L29.6891 36.0535H31.8375C30.9888 37.3206 30.4431 38.7649 30.2423 40.2753C30.0415 41.7857 30.191 43.3218 30.6793 44.7656L33.7986 43.7293C33.3968 42.5412 33.337 41.2647 33.626 40.0444C33.915 38.8242 34.5412 37.709 35.4336 36.8255L35.527 36.7322L35.6203 36.8253C36.5127 37.7089 37.1389 38.824 37.4279 40.0443C37.7169 41.2646 37.6572 42.5412 37.2554 43.7293L40.3747 44.7656C40.863 43.3218 41.0124 41.7857 40.8116 40.2753C40.6109 38.7649 40.0651 37.3206 39.2165 36.0535H41.3648L49.7703 45.4797C52.004 47.9846 53.3419 51.1567 53.5748 54.5C53.8076 57.8433 52.9224 61.1693 51.0574 63.9578L47.7994 68.8294H26.6789L28.2175 65.762C28.6986 64.8001 28.9496 63.7401 28.9509 62.6653C28.9509 61.6741 28.6725 60.7028 28.1472 59.8612C27.6219 59.0197 26.8707 58.3416 25.9786 57.9037C25.0866 57.4659 24.0894 57.2858 23.0999 57.3838C22.1105 57.4819 21.1684 57.8541 20.3803 58.4585L18.1645 60.1574C17.6883 58.6675 17.4449 57.1135 17.4427 55.5498ZM49.4794 74.4175L35.0546 78.7311C34.8398 78.7954 34.6404 78.9028 34.4688 79.0467C34.2972 79.1906 34.1569 79.368 34.0566 79.568L31.0378 85.5862L21.2706 89.7588L7.98358 72.0991L22.3849 61.0563C22.6864 60.8252 23.0467 60.6828 23.4251 60.6453C23.8035 60.6079 24.1849 60.6768 24.5261 60.8442C24.8672 61.0117 25.1545 61.271 25.3554 61.5929C25.5563 61.9147 25.6628 62.2862 25.6628 62.6653C25.6621 63.2313 25.5299 63.7895 25.2766 64.2961L22.5484 69.7352C22.423 69.985 22.3638 70.2627 22.3764 70.5418C22.389 70.8208 22.4729 71.0921 22.6203 71.3297C22.7676 71.5673 22.9734 71.7635 23.2182 71.8995C23.463 72.0355 23.7386 72.107 24.0188 72.107H49.1393C49.4235 72.1069 49.6982 72.2089 49.9133 72.3941C50.1284 72.5793 50.2694 72.8354 50.3107 73.1158C50.3519 73.3961 50.2907 73.6818 50.1381 73.9208C49.9855 74.1598 49.7517 74.3361 49.4794 74.4175ZM65.1195 57.3578H71.6956V72.107H65.1195V57.3578ZM74.9836 50.8026H81.5597V72.107H74.9836V50.8026ZM84.8478 72.107V42.6087H91.4239V72.107H84.8478Z" fill="#747474"/>
<path d="M79.9157 0C76.339 0 72.8426 1.05725 69.8686 3.03805C66.8947 5.01886 64.5768 7.83425 63.208 11.1282C61.8392 14.4222 61.4811 18.0467 62.1789 21.5436C62.8767 25.0404 64.599 28.2525 67.1282 30.7736C69.6573 33.2947 72.8796 35.0115 76.3876 35.7071C79.8957 36.4027 83.5318 36.0457 86.8363 34.6813C90.1407 33.3169 92.9651 31.0063 94.9522 28.0419C96.9394 25.0774 98 21.5921 98 18.0267C97.9946 13.2474 96.0875 8.66537 92.6973 5.28587C89.307 1.90637 84.7103 0.00539855 79.9157 0ZM94.6184 16.3879H87.9704C87.6452 14.8149 86.8646 13.3713 85.7253 12.2356C84.586 11.0999 83.1378 10.3219 81.5597 9.99766V3.37081C84.893 3.74724 87.9995 5.23968 90.3716 7.60416C92.7436 9.96865 94.2408 13.0653 94.6184 16.3879ZM86.7705 22.542C87.3524 21.6691 87.7598 20.6924 87.9704 19.6655H94.6184C94.3092 22.4323 93.2169 25.0543 91.469 27.2256L86.7705 22.542ZM79.9157 13.1104C80.8912 13.1104 81.8447 13.3987 82.6558 13.9389C83.4669 14.4791 84.0991 15.247 84.4724 16.1453C84.8456 17.0437 84.9433 18.0322 84.753 18.9859C84.5627 19.9396 84.093 20.8156 83.4032 21.5031C82.7135 22.1907 81.8346 22.659 80.8779 22.8487C79.9212 23.0384 78.9295 22.941 78.0283 22.5689C77.1271 22.1968 76.3568 21.5666 75.8148 20.7581C75.2729 19.9496 74.9836 18.9991 74.9836 18.0267C74.9851 16.7233 75.5052 15.4737 76.4299 14.552C77.3545 13.6303 78.6081 13.1118 79.9157 13.1104ZM65.1195 18.0267C65.1242 14.4003 66.4674 10.9024 68.8929 8.1996C71.3184 5.49679 74.6567 3.77801 78.2717 3.37081V9.99766C77.0835 10.2384 75.9635 10.7381 74.9919 11.4611C74.0203 12.184 73.2211 13.1123 72.6517 14.1793C72.0824 15.2463 71.7568 16.4257 71.6985 17.6329C71.6402 18.8401 71.8505 20.0452 72.3143 21.1618C72.7782 22.2785 73.4841 23.279 74.3815 24.0917C75.279 24.9044 76.3456 25.5091 77.5051 25.8626C78.6645 26.216 79.888 26.3093 81.088 26.136C82.2879 25.9626 83.4344 25.5267 84.4455 24.8597L89.144 29.5433C86.9688 31.2791 84.3458 32.3669 81.5774 32.6812C78.8089 32.9955 76.0077 32.5237 73.4966 31.3199C70.9856 30.1162 68.8668 28.2296 67.3847 25.8777C65.9025 23.5258 65.1173 20.8042 65.1195 18.0267Z" fill="#747474"/>
</svg>
