<svg width="74" height="64" viewBox="0 0 74 64" fill="none" xmlns="http://www.w3.org/2000/svg">
<path d="M74 15.9999C74 13.5938 72.0549 11.6363 69.6641 11.6363H52.8985V7.27259C52.8985 3.26249 49.6567 0 45.6719 0H28.3282C24.3435 0 21.1017 3.26249 21.1017 7.27259V11.6363H4.33593C1.9451 11.6363 0 13.5938 0 15.9999V30.5456C0 33.313 1.10422 35.8247 2.89076 37.6617V59.6364C2.89076 62.0425 4.83586 64 7.22669 64H66.7735C69.1643 64 71.1094 62.0425 71.1094 59.6364V37.6616C72.8959 35.8245 74 33.3128 74 30.5455V15.9999ZM23.9923 7.27259C23.9923 4.86653 25.9374 2.90904 28.3282 2.90904H45.6719C48.0628 2.90904 50.0079 4.86653 50.0079 7.27259V11.6363H47.1172V7.27259C47.1172 6.46926 46.4702 5.81808 45.6719 5.81808H28.3282C27.53 5.81808 26.8829 6.46926 26.8829 7.27259V11.6363H23.9923V7.27259ZM44.2266 11.6363H29.7735V8.72711H44.2266V11.6363ZM66.7735 61.091H7.22655C6.42961 61.091 5.78124 60.4385 5.78124 59.6364V39.7428C7.09618 40.3732 8.56621 40.7273 10.117 40.7273H14.4531V42.9089C13.6549 42.9089 13.0078 43.5601 13.0078 44.3634C13.0078 45.1667 13.6549 45.8179 14.4531 45.8179V47.2726C14.4531 50.0797 16.7224 52.3634 19.5117 52.3634C22.301 52.3634 24.5703 50.0797 24.5703 47.2726V45.8178C25.3685 45.8178 26.0156 45.1666 26.0156 44.3633C26.0156 43.5599 25.3685 42.9087 24.5703 42.9087V40.7271H49.4296V42.9087C48.6314 42.9087 47.9843 43.5599 47.9843 44.3633C47.9843 45.1666 48.6314 45.8178 49.4296 45.8178V47.2724C49.4296 50.0795 51.6989 52.3633 54.4882 52.3633C57.2775 52.3633 59.5468 50.0795 59.5468 47.2724V45.8178C60.345 45.8178 60.9921 45.1666 60.9921 44.3633C60.9921 43.5599 60.345 42.9087 59.5468 42.9087V40.7271H63.8828C65.4337 40.7271 66.9037 40.3731 68.2186 39.7427V59.6363C68.2188 60.4385 67.5704 61.091 66.7735 61.091ZM21.6798 42.9087H17.3439V34.9089H21.6798V42.9087ZM17.3439 45.8178H21.6798V47.2724C21.6798 48.4755 20.7072 49.4542 19.5118 49.4542C18.3164 49.4542 17.3439 48.4755 17.3439 47.2724V45.8178ZM56.6561 42.9087H52.3202V34.9089H56.6561V42.9087ZM52.3202 45.8178H56.6561V47.2724C56.6561 48.4755 55.6836 49.4542 54.4882 49.4542C53.2928 49.4542 52.3202 48.4755 52.3202 47.2724V45.8178ZM63.883 37.8182H59.5469V34.909C60.3452 34.909 60.9922 34.2578 60.9922 33.4545C60.9922 32.6512 60.3452 32 59.5469 32H49.4296C48.6314 32 47.9843 32.6512 47.9843 33.4545C47.9843 34.2578 48.6314 34.909 49.4296 34.909V37.8182H24.5706V34.909C25.3688 34.909 26.0159 34.2578 26.0159 33.4545C26.0159 32.6512 25.3688 32 24.5706 32H14.4532C13.655 32 13.0079 32.6512 13.0079 33.4545C13.0079 34.2578 13.655 34.909 14.4532 34.909V37.8182H10.1172C6.13245 37.8182 2.89062 34.5557 2.89062 30.5456V20.3636H30.4957C31.294 20.3636 31.9411 19.7124 31.9411 18.909C31.9411 18.1057 31.294 17.4545 30.4957 17.4545H2.89062V15.9999C2.89062 15.1978 3.53899 14.5453 4.33593 14.5453H69.6642C70.4612 14.5453 71.1095 15.1978 71.1095 15.9999V17.4545H43.5035C42.7053 17.4545 42.0582 18.1057 42.0582 18.909C42.0582 19.7124 42.7053 20.3636 43.5035 20.3636H71.1095V30.5456C71.1094 34.5557 67.8677 37.8182 63.883 37.8182Z" fill="#747474"/>
<path d="M37.0001 17.4546H36.9991C36.2009 17.4546 35.5544 18.1057 35.5544 18.9091C35.5544 19.7124 36.2019 20.3636 37.0001 20.3636C37.7984 20.3636 38.4455 19.7124 38.4455 18.9091C38.4455 18.1057 37.7984 17.4546 37.0001 17.4546Z" fill="#747474"/>
</svg>
