<svg width="74" height="74" viewBox="0 0 74 74" fill="none" xmlns="http://www.w3.org/2000/svg">
<path d="M69.0667 0H23.4333C20.7087 0 18.5 2.20873 18.5 4.93333V22.2C18.5 22.8812 19.0522 23.4333 19.7333 23.4333C20.4145 23.4333 20.9667 22.8812 20.9667 22.2V4.93333C20.9667 3.57103 22.071 2.46667 23.4333 2.46667H69.0667C70.429 2.46667 71.5333 3.57103 71.5333 4.93333V69.0667C71.5333 70.429 70.429 71.5333 69.0667 71.5333H37C36.3189 71.5333 35.7667 72.0855 35.7667 72.7667C35.7667 73.4478 36.3189 74 37 74H69.0667C71.7913 74 74 71.7913 74 69.0667V4.93333C74 2.20873 71.7913 0 69.0667 0Z" fill="#747474"/>
<path d="M69.0667 7.40002C69.0667 6.03772 67.9623 4.93335 66.6 4.93335H25.9C24.5377 4.93335 23.4334 6.03772 23.4334 7.40002V17.2667C23.4334 18.629 24.5377 19.7334 25.9 19.7334H66.6C67.9623 19.7334 69.0667 18.629 69.0667 17.2667V7.40002ZM49.2359 17.2667L56.1426 7.40002H60.5308L53.6241 17.2667H49.2359ZM25.9 7.40002H53.1308L46.2241 17.2667H25.9V7.40002ZM66.6 17.2667H56.6359L63.5426 7.40002H66.6V17.2667Z" fill="#747474"/>
<path d="M39.4666 65.3667C39.4666 67.4101 41.1231 69.0667 43.1666 69.0667H65.3666C67.41 69.0667 69.0666 67.4101 69.0666 65.3667V59.2C69.0666 57.1566 67.41 55.5 65.3666 55.5H43.1666C41.1231 55.5 39.4666 57.1566 39.4666 59.2V65.3667ZM41.9332 59.2C41.9332 58.5189 42.4854 57.9667 43.1666 57.9667H65.3666C66.0477 57.9667 66.5999 58.5189 66.5999 59.2V65.3667C66.5999 66.0478 66.0477 66.6 65.3666 66.6H43.1666C42.4854 66.6 41.9332 66.0478 41.9332 65.3667V59.2Z" fill="#747474"/>
<path d="M69.0667 43.1666C69.0667 41.1231 67.4101 39.4666 65.3667 39.4666H59.2C57.1565 39.4666 55.5 41.1231 55.5 43.1666V49.3332C55.5 51.3767 57.1565 53.0332 59.2 53.0332H65.3667C67.4101 53.0332 69.0667 51.3767 69.0667 49.3332V43.1666ZM66.6 49.3332C66.6 50.0144 66.0478 50.5666 65.3667 50.5666H59.2C58.5188 50.5666 57.9667 50.0144 57.9667 49.3332V43.1666C57.9667 42.4854 58.5188 41.9332 59.2 41.9332H65.3667C66.0478 41.9332 66.6 42.4854 66.6 43.1666V49.3332Z" fill="#747474"/>
<path d="M69.0667 27.1334C69.0667 25.0899 67.4101 23.4334 65.3667 23.4334H59.2C57.1565 23.4334 55.5 25.0899 55.5 27.1334V33.3C55.5 35.3435 57.1565 37 59.2 37H65.3667C67.4101 37 69.0667 35.3435 69.0667 33.3V27.1334ZM66.6 33.3C66.6 33.9812 66.0478 34.5334 65.3667 34.5334H59.2C58.5188 34.5334 57.9667 33.9812 57.9667 33.3V27.1334C57.9667 26.4522 58.5188 25.9 59.2 25.9H65.3667C66.0478 25.9 66.6 26.4522 66.6 27.1334V33.3Z" fill="#747474"/>
<path d="M43.1666 37H49.3332C51.3767 37 53.0332 35.3435 53.0332 33.3V27.1334C53.0332 25.0899 51.3767 23.4334 49.3332 23.4334H43.1666C41.1231 23.4334 39.4666 25.0899 39.4666 27.1334V33.3C39.4666 35.3435 41.1231 37 43.1666 37ZM41.9332 27.1334C41.9332 26.4522 42.4854 25.9 43.1666 25.9H49.3332C50.0144 25.9 50.5666 26.4522 50.5666 27.1334V33.3C50.5666 33.9812 50.0144 34.5334 49.3332 34.5334H43.1666C42.4854 34.5334 41.9332 33.9812 41.9332 33.3V27.1334Z" fill="#747474"/>
<path d="M39.4666 49.3332C39.4666 51.3767 41.1231 53.0332 43.1666 53.0332H49.3332C51.3767 53.0332 53.0332 51.3767 53.0332 49.3332V43.1666C53.0332 41.1231 51.3767 39.4666 49.3332 39.4666H43.1666C41.1231 39.4666 39.4666 41.1231 39.4666 43.1666V49.3332ZM41.9332 43.1666C41.9332 42.4854 42.4854 41.9332 43.1666 41.9332H49.3332C50.0144 41.9332 50.5666 42.4854 50.5666 43.1666V49.3332C50.5666 50.0144 50.0144 50.5666 49.3332 50.5666H43.1666C42.4854 50.5666 41.9332 50.0144 41.9332 49.3332V43.1666Z" fill="#747474"/>
<path d="M17.8833 73.9999C24.5261 73.9999 35.7667 72.8307 35.7667 68.4499V31.4499C35.7667 27.0691 24.5261 25.8999 17.8833 25.8999C11.2406 25.8999 0 27.0691 0 31.4499V68.4499C0 72.8307 11.2406 73.9999 17.8833 73.9999ZM17.8833 28.3666C27.3405 28.3666 33.0287 30.4139 33.3 31.4326C33.0287 32.4859 27.3405 34.5332 17.8833 34.5332C16.856 34.5332 15.8397 34.5086 14.8604 34.4605C14.1793 34.4264 13.5995 34.951 13.5654 35.6321C13.5314 36.3133 14.0559 36.8931 14.7371 36.9271C15.7558 36.9777 16.8116 37.0024 17.8809 37.0024C22.5971 37.0024 29.6148 36.4054 33.2975 34.495V38.8376C33.2334 39.0842 32.1727 40.1449 28.1175 40.9971C27.499 41.1259 27.0778 41.7013 27.142 42.3298C27.2061 42.9583 27.7349 43.4367 28.3667 43.4379C28.4521 43.438 28.5373 43.4289 28.6207 43.4108C30.241 43.1104 31.8144 42.597 33.3 41.8839V46.2351C33.0213 47.2884 27.3344 49.3332 17.8833 49.3332C16.856 49.3332 15.8397 49.3086 14.8604 49.2605C14.1793 49.2264 13.5995 49.751 13.5654 50.4321C13.5314 51.1133 14.0559 51.6931 14.7371 51.7271C15.7558 51.7777 16.8116 51.8024 17.8809 51.8024C22.5984 51.8024 29.616 51.2054 33.2975 49.295V53.6388C33.2359 53.8768 32.1789 54.9461 28.1101 55.7996C27.4958 55.9336 27.0807 56.5083 27.1465 57.1336C27.2123 57.7589 27.7379 58.2346 28.3667 58.2379C28.4521 58.238 28.5373 58.2289 28.6207 58.2108C30.2409 57.9099 31.8142 57.3965 33.3 56.6839V61.0339C33.0262 62.0859 27.3381 64.1332 17.8833 64.1332C16.856 64.1332 15.8397 64.1086 14.8604 64.0605C14.1793 64.0264 13.5995 64.551 13.5654 65.2321C13.5314 65.9133 14.0559 66.4931 14.7371 66.5271C15.7558 66.5777 16.8116 66.6024 17.8809 66.6024C22.5984 66.6024 29.6173 66.0054 33.2975 64.0938V68.4351C33.0287 69.4859 27.3405 71.5332 17.8833 71.5332C8.42613 71.5332 2.738 69.4859 2.46667 68.4499V64.0876C4.3542 64.9674 6.36097 65.5646 8.42243 65.8599C8.49231 65.8694 8.56282 65.8735 8.63333 65.8722C9.27249 65.8706 9.8045 65.381 9.85904 64.7441C9.91358 64.1073 9.47257 63.5343 8.843 63.4241C3.8702 62.5607 2.553 61.3274 2.46543 61.0388V56.6925C6.1494 58.603 13.1671 59.1999 17.8833 59.1999C19.4016 59.1999 20.884 59.1493 22.2876 59.0482C22.7369 59.0301 23.1408 58.7689 23.3415 58.3665C23.5423 57.9641 23.5081 57.4843 23.2524 57.1144C22.9966 56.7445 22.5598 56.5432 22.1124 56.5889C20.7656 56.6839 19.3436 56.7332 17.8833 56.7332C8.4434 56.7332 2.75773 54.6933 2.46667 53.6388V49.2876C4.3542 50.1674 6.36097 50.7646 8.42243 51.0599C8.49231 51.0694 8.56282 51.0735 8.63333 51.0722C9.27249 51.0706 9.8045 50.581 9.85904 49.9441C9.91358 49.3073 9.47257 48.7343 8.843 48.6241C3.8702 47.7607 2.553 46.5274 2.46543 46.2388V41.8925C6.1494 43.803 13.1671 44.3999 17.8833 44.3999C19.4016 44.3999 20.884 44.3493 22.2876 44.2482C22.7369 44.2301 23.1408 43.9689 23.3415 43.5665C23.5423 43.1641 23.5081 42.6843 23.2524 42.3144C22.9966 41.9445 22.5598 41.7432 22.1124 41.7889C20.7656 41.8839 19.3436 41.9332 17.8833 41.9332C8.4434 41.9332 2.75773 39.8933 2.46667 38.8388V34.4876C4.3542 35.3674 6.36097 35.9646 8.42243 36.2599C9.09371 36.3764 9.7323 35.9266 9.84878 35.2554C9.96526 34.5841 9.51551 33.9455 8.84423 33.829C3.8591 32.9657 2.55423 31.7323 2.46667 31.4758V31.4684C2.75033 30.4102 8.436 28.3666 17.8833 28.3666Z" fill="#747474"/>
</svg>
