<svg width="168" height="30" viewBox="0 0 168 30" fill="none" xmlns="http://www.w3.org/2000/svg">
<path d="M0.665 19.269C0.665 17.863 0.887 16.5433 1.331 15.31C1.79967 14.052 2.46567 12.9667 3.329 12.054C4.19233 11.1167 5.24067 10.3767 6.474 9.834C7.70733 9.29133 9.11333 9.02 10.692 9.02C11.728 9.02 12.6777 9.11867 13.541 9.316C14.4043 9.48867 15.243 9.74767 16.057 10.093L14.91 14.496C14.392 14.2987 13.8247 14.126 13.208 13.978C12.5913 13.83 11.9007 13.756 11.136 13.756C9.508 13.756 8.287 14.2617 7.473 15.273C6.68367 16.2843 6.289 17.6163 6.289 19.269C6.289 21.0203 6.659 22.377 7.399 23.339C8.16367 24.301 9.48333 24.782 11.358 24.782C12.024 24.782 12.7393 24.7203 13.504 24.597C14.2687 24.4737 14.9717 24.2763 15.613 24.005L16.39 28.519C15.7487 28.7903 14.947 29.0247 13.985 29.222C13.023 29.4193 11.9623 29.518 10.803 29.518C9.027 29.518 7.49767 29.259 6.215 28.741C4.93233 28.1983 3.87167 27.4707 3.033 26.558C2.219 25.6453 1.61467 24.5723 1.22 23.339C0.85 22.081 0.665 20.7243 0.665 19.269ZM20.09 29V1.176L25.603 0.287999V9.612C25.973 9.48866 26.4417 9.37766 27.009 9.279C27.601 9.15566 28.1683 9.094 28.711 9.094C30.2897 9.094 31.597 9.316 32.633 9.76C33.6937 10.1793 34.5323 10.7837 35.149 11.573C35.7903 12.3623 36.2343 13.2997 36.481 14.385C36.7523 15.4703 36.888 16.679 36.888 18.011V29H31.375V18.677C31.375 16.901 31.1407 15.643 30.672 14.903C30.228 14.163 29.3893 13.793 28.156 13.793C27.6627 13.793 27.194 13.8423 26.75 13.941C26.3307 14.015 25.9483 14.1013 25.603 14.2V29H20.09ZM40.9531 19.417C40.9531 17.6903 41.2121 16.1857 41.7301 14.903C42.2728 13.5957 42.9758 12.5103 43.8391 11.647C44.7024 10.7837 45.6891 10.13 46.7991 9.686C47.9338 9.242 49.0931 9.02 50.2771 9.02C53.0398 9.02 55.2228 9.871 56.8261 11.573C58.4294 13.2503 59.2311 15.7293 59.2311 19.01C59.2311 19.3307 59.2188 19.6883 59.1941 20.083C59.1694 20.453 59.1448 20.786 59.1201 21.082H46.6141C46.7374 22.2167 47.2678 23.117 48.2051 23.783C49.1424 24.449 50.4004 24.782 51.9791 24.782C52.9904 24.782 53.9771 24.6957 54.9391 24.523C55.9258 24.3257 56.7274 24.0913 57.3441 23.82L58.0841 28.297C57.7881 28.445 57.3934 28.593 56.9001 28.741C56.4068 28.889 55.8518 29.0123 55.2351 29.111C54.6431 29.2343 54.0018 29.333 53.3111 29.407C52.6204 29.481 51.9298 29.518 51.2391 29.518C49.4878 29.518 47.9584 29.259 46.6511 28.741C45.3684 28.223 44.2954 27.52 43.4321 26.632C42.5934 25.7193 41.9644 24.6463 41.5451 23.413C41.1504 22.1797 40.9531 20.8477 40.9531 19.417ZM53.9031 17.308C53.8784 16.8393 53.7921 16.383 53.6441 15.939C53.5208 15.495 53.3111 15.1003 53.0151 14.755C52.7438 14.4097 52.3861 14.126 51.9421 13.904C51.5228 13.682 50.9924 13.571 50.3511 13.571C49.7344 13.571 49.2041 13.682 48.7601 13.904C48.3161 14.1013 47.9461 14.3727 47.6501 14.718C47.3541 15.0633 47.1198 15.4703 46.9471 15.939C46.7991 16.383 46.6881 16.8393 46.6141 17.308H53.9031ZM62.5605 19.269C62.5605 17.863 62.7825 16.5433 63.2265 15.31C63.6952 14.052 64.3612 12.9667 65.2245 12.054C66.0878 11.1167 67.1362 10.3767 68.3695 9.834C69.6028 9.29133 71.0088 9.02 72.5875 9.02C73.6235 9.02 74.5732 9.11867 75.4365 9.316C76.2998 9.48867 77.1385 9.74767 77.9525 10.093L76.8055 14.496C76.2875 14.2987 75.7202 14.126 75.1035 13.978C74.4868 13.83 73.7962 13.756 73.0315 13.756C71.4035 13.756 70.1825 14.2617 69.3685 15.273C68.5792 16.2843 68.1845 17.6163 68.1845 19.269C68.1845 21.0203 68.5545 22.377 69.2945 23.339C70.0592 24.301 71.3788 24.782 73.2535 24.782C73.9195 24.782 74.6348 24.7203 75.3995 24.597C76.1642 24.4737 76.8672 24.2763 77.5085 24.005L78.2855 28.519C77.6442 28.7903 76.8425 29.0247 75.8805 29.222C74.9185 29.4193 73.8578 29.518 72.6985 29.518C70.9225 29.518 69.3932 29.259 68.1105 28.741C66.8278 28.1983 65.7672 27.4707 64.9285 26.558C64.1145 25.6453 63.5102 24.5723 63.1155 23.339C62.7455 22.081 62.5605 20.7243 62.5605 19.269ZM87.4985 16.568C88.0412 15.976 88.5962 15.3593 89.1635 14.718C89.7555 14.0767 90.3228 13.4477 90.8655 12.831C91.4082 12.1897 91.9138 11.5853 92.3825 11.018C92.8758 10.4507 93.2952 9.95733 93.6405 9.538H100.19C98.8822 11.0427 97.5995 12.4857 96.3415 13.867C95.1082 15.2237 93.7515 16.6297 92.2715 18.085C93.0115 18.751 93.7762 19.5527 94.5655 20.49C95.3548 21.4027 96.1195 22.3523 96.8595 23.339C97.5995 24.3257 98.2778 25.3123 98.8945 26.299C99.5112 27.2857 100.029 28.186 100.449 29H94.1215C93.7268 28.3587 93.2705 27.6557 92.7525 26.891C92.2592 26.1017 91.7288 25.3247 91.1615 24.56C90.5942 23.7707 89.9898 23.0183 89.3485 22.303C88.7318 21.5877 88.1152 20.9833 87.4985 20.49V29H81.9855V1.176L87.4985 0.287999V16.568ZM100.121 15.458H110.851V20.453H100.121V15.458ZM122.131 29.37C120.527 29.3453 119.22 29.1727 118.209 28.852C117.222 28.5313 116.433 28.0873 115.841 27.52C115.273 26.928 114.879 26.225 114.657 25.411C114.459 24.5723 114.361 23.635 114.361 22.599V1.176L119.874 0.287999V21.489C119.874 21.9823 119.911 22.4263 119.985 22.821C120.059 23.2157 120.194 23.5487 120.392 23.82C120.614 24.0913 120.922 24.3133 121.317 24.486C121.711 24.6587 122.242 24.7697 122.908 24.819L122.131 29.37ZM131.581 29H126.068V9.538H131.581V29ZM132.099 3.914C132.099 4.92533 131.766 5.727 131.1 6.319C130.458 6.88633 129.694 7.17 128.806 7.17C127.918 7.17 127.141 6.88633 126.475 6.319C125.833 5.727 125.513 4.92533 125.513 3.914C125.513 2.90267 125.833 2.11333 126.475 1.546C127.141 0.953999 127.918 0.657999 128.806 0.657999C129.694 0.657999 130.458 0.953999 131.1 1.546C131.766 2.11333 132.099 2.90267 132.099 3.914ZM142.35 25.041C143.361 25.041 144.077 24.9423 144.496 24.745C144.915 24.5477 145.125 24.1653 145.125 23.598C145.125 23.154 144.854 22.7717 144.311 22.451C143.768 22.1057 142.942 21.7233 141.832 21.304C140.969 20.9833 140.179 20.6503 139.464 20.305C138.773 19.9597 138.181 19.5527 137.688 19.084C137.195 18.5907 136.812 18.011 136.541 17.345C136.27 16.679 136.134 15.8773 136.134 14.94C136.134 13.1147 136.812 11.6717 138.169 10.611C139.526 9.55033 141.388 9.02 143.756 9.02C144.94 9.02 146.075 9.131 147.16 9.353C148.245 9.55033 149.109 9.77233 149.75 10.019L148.788 14.311C148.147 14.089 147.444 13.8917 146.679 13.719C145.939 13.5463 145.1 13.46 144.163 13.46C142.436 13.46 141.573 13.941 141.573 14.903C141.573 15.125 141.61 15.3223 141.684 15.495C141.758 15.6677 141.906 15.8403 142.128 16.013C142.35 16.161 142.646 16.3337 143.016 16.531C143.411 16.7037 143.904 16.901 144.496 17.123C145.705 17.567 146.704 18.011 147.493 18.455C148.282 18.8743 148.899 19.343 149.343 19.861C149.812 20.3543 150.132 20.9093 150.305 21.526C150.502 22.1427 150.601 22.858 150.601 23.672C150.601 25.596 149.873 27.0513 148.418 28.038C146.987 29.0247 144.952 29.518 142.313 29.518C140.586 29.518 139.143 29.37 137.984 29.074C136.849 28.778 136.06 28.5313 135.616 28.334L136.541 23.857C137.478 24.227 138.44 24.523 139.427 24.745C140.414 24.9423 141.388 25.041 142.35 25.041ZM154.536 4.691L160.049 3.803V9.538H166.672V14.126H160.049V20.971C160.049 22.1303 160.246 23.0553 160.641 23.746C161.06 24.4367 161.887 24.782 163.12 24.782C163.712 24.782 164.316 24.7327 164.933 24.634C165.574 24.5107 166.154 24.3503 166.672 24.153L167.449 28.445C166.783 28.7163 166.043 28.9507 165.229 29.148C164.415 29.3453 163.416 29.444 162.232 29.444C160.727 29.444 159.482 29.2467 158.495 28.852C157.508 28.4327 156.719 27.8653 156.127 27.15C155.535 26.41 155.116 25.522 154.869 24.486C154.647 23.45 154.536 22.303 154.536 21.045V4.691Z" fill="white"/>
</svg>
